<svg width="17" height="17" viewBox="0 0 17 17" fill="none" xmlns="http://www.w3.org/2000/svg">
<path d="M16.875 6.61622C16.8755 6.452 16.8434 6.28933 16.7805 6.13764C16.7176 5.98595 16.6251 5.84828 16.5086 5.73262L11.1429 0.366217C11.0269 0.250114 10.8891 0.158014 10.7374 0.0951779C10.5857 0.0323417 10.4231 0 10.259 0C10.0948 0 9.93221 0.0323417 9.78054 0.0951779C9.62886 0.158014 9.49105 0.250114 9.37497 0.366217L7.15388 2.58731L2.62263 4.28809C2.41669 4.36489 2.23455 4.49444 2.09442 4.66377C1.9543 4.8331 1.86111 5.03627 1.82419 5.25294L0.00856656 16.1475C-0.00641545 16.237 -0.00170434 16.3288 0.0223722 16.4163C0.0464487 16.5039 0.0893124 16.5851 0.147981 16.6544C0.206649 16.7237 0.279713 16.7794 0.362088 16.8176C0.444464 16.8558 0.534173 16.8756 0.624973 16.8756C0.65952 16.8754 0.694003 16.8726 0.728098 16.867L11.6218 15.0514C11.8383 15.0153 12.0413 14.9228 12.2107 14.7834C12.3801 14.6439 12.5097 14.4623 12.5867 14.2568L14.2875 9.72559L16.5086 7.50059C16.6252 7.38482 16.7177 7.24702 16.7806 7.09519C16.8435 6.94337 16.8756 6.78056 16.875 6.61622ZM11.4164 13.8186L2.44685 15.3131L6.14763 11.6123C6.60986 11.8621 7.14655 11.9372 7.65959 11.8239C8.17263 11.7105 8.62774 11.4163 8.9417 10.995C9.25565 10.5737 9.40749 10.0535 9.36944 9.52947C9.33139 9.00544 9.106 8.51261 8.73448 8.14108C8.36296 7.76956 7.87013 7.54417 7.3461 7.50612C6.82206 7.46807 6.30184 7.61991 5.88055 7.93387C5.45926 8.24783 5.16504 8.70293 5.05169 9.21597C4.93835 9.72901 5.01344 10.2657 5.26325 10.7279L1.56247 14.4303L3.057 5.45841L7.34372 3.85137L13.0234 9.53184L11.4164 13.8186ZM6.24997 9.68809C6.24997 9.50267 6.30496 9.32142 6.40797 9.16725C6.51098 9.01307 6.6574 8.89291 6.82871 8.82196C7.00001 8.751 7.18851 8.73243 7.37037 8.76861C7.55223 8.80478 7.71927 8.89407 7.85039 9.02518C7.9815 9.15629 8.07079 9.32334 8.10696 9.5052C8.14313 9.68705 8.12457 9.87555 8.05361 10.0469C7.98265 10.2182 7.86249 10.3646 7.70832 10.4676C7.55415 10.5706 7.37289 10.6256 7.18747 10.6256C6.93883 10.6256 6.70038 10.5268 6.52456 10.351C6.34874 10.1752 6.24997 9.93673 6.24997 9.68809ZM13.75 8.49122L8.38357 3.12559L10.2586 1.25059L15.625 6.61622L13.75 8.49122Z" fill="#24487C"/>
</svg>
