<svg xmlns="http://www.w3.org/2000/svg" viewBox="0 0 345.57 409.87"><title>Asset 1</title><g id="Layer_2" data-name="Layer 2"><g id="Layer_1-2" data-name="Layer 1"><path d="M307.14,409.87H38.85a10.71,10.71,0,0,0-1.83-.69C16,405.39,1.2,388.66.4,367.43.05,358,.25,348.54.25,339.1.24,242.23.64,145.36,0,48.49-.19,19.42,21.36-.34,48.32,0c60,.76,120,.27,180,.19a16.41,16.41,0,0,1,12.45,5.1q49.72,49.89,99.64,99.63a16.31,16.31,0,0,1,5.14,12.42c-.14,23.42-.06,46.84-.06,70.25q0,88.42,0,176.84c0,20.59-11.94,37.29-30.77,43.31C312.22,408.54,309.67,409.16,307.14,409.87ZM218.64,24.22H47c-14.72,0-22.76,8-22.76,22.64q0,158.3,0,316.6c0,14.4,8.12,22.41,22.58,22.41H298.75c14.65,0,22.77-8.09,22.77-22.67q0-115.78,0-231.56v-4.52h-4.83c-17.3,0-34.6.07-51.9,0a53.66,53.66,0,0,1-11.47-1.15c-20.87-4.81-34.49-22.11-34.65-44-.14-17.7,0-35.4,0-53.1Zm24.16,18.7c.06-.2-.12.15-.13.5,0,13-.27,26.09.06,39.12C243.05,95,251.5,103,264,103.1s24.75,0,37.13,0a6.18,6.18,0,0,0,1.61-.25Z"/><path d="M159.15,136.34c4.55,5.52,8.86,10.57,13,15.78a58.61,58.61,0,0,1,12.67,34.59c.25,6,.23,12,.09,17.95-.16,7.09-4.55,11.65-11.58,12.3-1.32.13-2.65.12-4,.12H80c-11.48,0-15.82-4.12-15.44-15.67C64.83,191.9,65,182.22,67,173c2.65-12.89,10.37-23.11,20.66-31.31,1.24-1,2.51-2,3.76-2.95.08-.07.09-.24.24-.66-9-10.87-13-23.43-10.29-37.63A43,43,0,0,1,97,74.3,44,44,0,0,1,155.3,77C170.33,91.41,175,117.18,159.15,136.34Zm1.35,56.5c1.76-13-5.41-27.84-16.53-34.36-13.42-7.86-27-7.82-39.82.89-11.54,7.85-16.21,19.42-15.57,33.47ZM124.82,88.64a20.17,20.17,0,0,0-20.31,19.74c-.24,10.92,9.14,20.39,20.17,20.38a20.36,20.36,0,0,0,20.11-20A20.14,20.14,0,0,0,124.82,88.64Z"/><path d="M173,345.59q-47.08,0-94.15,0c-7.86,0-12.15-2.76-13.9-8.77A11.75,11.75,0,0,1,74,322a32.84,32.84,0,0,1,6-.42q93,0,185.9,0a31.19,31.19,0,0,1,6.34.5,11.86,11.86,0,0,1-.6,23.19,38.22,38.22,0,0,1-6,.33Q219.32,345.61,173,345.59Z"/><path d="M173.05,257.34q47.47,0,94.95,0c8.08,0,13.66,5.44,13.18,12.66a12,12,0,0,1-11,11.23c-1.32.12-2.65.07-4,.07H79.49a29.67,29.67,0,0,1-5.17-.22,12.07,12.07,0,0,1-9.83-12.67,11.87,11.87,0,0,1,11.61-11c9.84-.17,19.68-.06,29.53-.07Z"/><path d="M253,216.77c-6,0-12,.36-17.9-.1-5.52-.43-9.45-5.16-10-10.8A11.87,11.87,0,0,1,232.78,194a15.54,15.54,0,0,1,5.05-.91q15.33-.12,30.67,0a15.61,15.61,0,0,1,5.06.88,11.7,11.7,0,0,1,7.56,12.26c-.58,5.48-4.41,10-9.81,10.44C265.24,217.12,259.12,216.77,253,216.77Z"/></g></g></svg>