<svg width="12" height="12" viewBox="0 0 12 12" fill="none" xmlns="http://www.w3.org/2000/svg">
<path d="M12 1.99899C11.9998 1.62497 11.8947 1.25849 11.6967 0.941181C11.4987 0.623872 11.2157 0.368445 10.8798 0.203911C10.5439 0.0393762 10.1686 -0.0276731 9.79654 0.0103776C9.42445 0.0484283 9.0705 0.190054 8.77486 0.419171C8.47923 0.648288 8.25376 0.955714 8.12408 1.30654C7.99439 1.65736 7.96568 2.03751 8.0412 2.40384C8.11672 2.77016 8.29345 3.10796 8.55132 3.37888C8.80919 3.6498 9.13786 3.84299 9.5 3.93649V4.49899C9.5 4.76421 9.39465 5.01856 9.20711 5.2061C9.01958 5.39364 8.76522 5.49899 8.5 5.49899H3.5C3.23479 5.49899 2.98043 5.39364 2.7929 5.2061C2.60536 5.01856 2.5 4.76421 2.5 4.49899V3.93649C2.97133 3.8148 3.3821 3.52538 3.65531 3.12249C3.92851 2.7196 4.0454 2.2309 3.98406 1.74799C3.92273 1.26509 3.68737 0.821126 3.32212 0.499332C2.95687 0.177537 2.48679 9.2389e-07 2 9.2389e-07C1.51322 9.2389e-07 1.04314 0.177537 0.677888 0.499332C0.312635 0.821126 0.0772827 1.26509 0.0159455 1.74799C-0.0453918 2.2309 0.0714978 2.7196 0.344704 3.12249C0.61791 3.52538 1.02868 3.8148 1.5 3.93649V4.49899C1.5 5.02943 1.71072 5.53813 2.08579 5.91321C2.46086 6.28828 2.96957 6.49899 3.5 6.49899H5.5V8.06149C5.02868 8.18319 4.61791 8.47261 4.3447 8.8755C4.0715 9.27839 3.95461 9.76709 4.01595 10.25C4.07728 10.7329 4.31264 11.1769 4.67789 11.4987C5.04314 11.8204 5.51322 11.998 6 11.998C6.48679 11.998 6.95687 11.8204 7.32212 11.4987C7.68737 11.1769 7.92273 10.7329 7.98406 10.25C8.0454 9.76709 7.92851 9.27839 7.65531 8.8755C7.3821 8.47261 6.97133 8.18319 6.5 8.06149V6.49899H8.5C9.03044 6.49899 9.53915 6.28828 9.91422 5.91321C10.2893 5.53813 10.5 5.02943 10.5 4.49899V3.93649C10.9292 3.82502 11.3092 3.57435 11.5807 3.22374C11.8521 2.87313 11.9996 2.44239 12 1.99899ZM1 1.99899C1 1.80121 1.05865 1.60787 1.16854 1.44342C1.27842 1.27897 1.4346 1.1508 1.61732 1.07511C1.80005 0.999425 2.00111 0.979622 2.1951 1.01821C2.38908 1.05679 2.56726 1.15203 2.70711 1.29189C2.84696 1.43174 2.9422 1.60992 2.98079 1.8039C3.01938 1.99788 2.99957 2.19895 2.92388 2.38168C2.8482 2.5644 2.72002 2.72058 2.55557 2.83046C2.39113 2.94034 2.19779 2.99899 2 2.99899C1.73479 2.99899 1.48043 2.89364 1.2929 2.7061C1.10536 2.51856 1 2.26421 1 1.99899ZM7 9.99899C7 10.1968 6.94136 10.3901 6.83147 10.5546C6.72159 10.719 6.56541 10.8472 6.38269 10.9229C6.19996 10.9986 5.9989 11.0184 5.80491 10.9798C5.61093 10.9412 5.43275 10.846 5.2929 10.7061C5.15305 10.5662 5.0578 10.3881 5.01922 10.1941C4.98063 10.0001 5.00044 9.79904 5.07613 9.61631C5.15181 9.43358 5.27999 9.2774 5.44443 9.16752C5.60888 9.05764 5.80222 8.99899 6 8.99899C6.26522 8.99899 6.51958 9.10435 6.70711 9.29189C6.89465 9.47942 7 9.73378 7 9.99899ZM10 2.99899C9.80222 2.99899 9.60888 2.94034 9.44443 2.83046C9.27999 2.72058 9.15181 2.5644 9.07613 2.38168C9.00044 2.19895 8.98063 1.99788 9.01922 1.8039C9.05781 1.60992 9.15305 1.43174 9.2929 1.29189C9.43275 1.15203 9.61093 1.05679 9.80491 1.01821C9.9989 0.979622 10.2 0.999425 10.3827 1.07511C10.5654 1.1508 10.7216 1.27897 10.8315 1.44342C10.9414 1.60787 11 1.80121 11 1.99899C11 2.26421 10.8946 2.51856 10.7071 2.7061C10.5196 2.89364 10.2652 2.99899 10 2.99899Z" fill="#081A35"/>
</svg>
